<?xml version="1.0" standalone="no"?>
<!DOCTYPE svg PUBLIC "-//W3C//DTD SVG 20010904//EN"
 "http://www.w3.org/TR/2001/REC-SVG-20010904/DTD/svg10.dtd">
<svg version="1.0" xmlns="http://www.w3.org/2000/svg"
 width="284.000000pt" height="284.000000pt" viewBox="0 0 284.000000 284.000000"
 preserveAspectRatio="xMidYMid meet">
<metadata>
Created by potrace 1.11, written by Peter Selinger 2001-2013
</metadata>
<g transform="translate(0.000000,284.000000) scale(0.100000,-0.100000)"
fill="#000000" stroke="none">
<path d="M718 2335 c-2 -2 -19 -5 -38 -8 -205 -29 -399 -150 -518 -324 -152
-222 -199 -623 -112 -950 75 -278 269 -472 530 -529 19 -4 42 -9 50 -12 8 -2
83 -5 166 -7 170 -4 303 15 434 60 l75 27 0 160 c0 154 0 159 -20 155 -11 -2
-60 -16 -109 -31 -145 -43 -230 -55 -351 -52 -252 7 -387 154 -420 456 -8 72
-8 241 0 280 3 14 8 41 11 60 18 102 71 214 134 279 101 105 248 142 424 106
35 -7 209 -71 248 -91 l27 -14 61 157 c60 153 63 172 27 173 -4 0 -26 9 -50
19 -56 26 -165 58 -254 75 -61 11 -305 20 -315 11z"/>
<path d="M1505 1415 l0 -896 420 4 c231 2 434 7 450 11 17 4 63 18 104 32 230
77 351 238 353 467 2 216 -90 360 -262 408 -65 18 -66 23 -8 42 91 28 166 107
202 212 23 65 30 215 12 280 -45 171 -181 277 -400 311 -21 3 -48 8 -60 11
-11 3 -199 8 -416 10 l-395 5 0 -897z m734 569 c70 -16 131 -59 146 -105 16
-46 12 -137 -8 -176 -41 -78 -122 -102 -336 -99 l-155 1 -1 185 c0 102 1 191
3 198 6 17 272 14 351 -4z m14 -698 c132 -31 191 -104 183 -226 -6 -96 -42
-150 -125 -188 -54 -25 -63 -26 -241 -27 l-184 0 -1 220 c0 121 1 224 3 228 6
12 306 6 365 -7z"/>
</g>
</svg>
